<?xml version="1.0" encoding="UTF-8"?>
<svg version="1.1" xmlns="http://www.w3.org/2000/svg" width="128" height="128">
<path d="M0 0 C1.36299273 0.49571206 2.72679623 0.98919928 4.09130859 1.48071289 C4.79632507 1.73515167 5.50134155 1.98959045 6.22772217 2.2517395 C19.93447201 7.15622373 32.2497222 10.15731211 46.97802734 9.38696289 C48.90625 9.53125 48.90625 9.53125 51.90625 11.53125 C52.20301455 14.4208473 52.3051574 17.09637698 52.27856445 19.98828125 C52.28221512 20.86318207 52.28586578 21.73808289 52.28962708 22.63949585 C52.29775511 25.54110933 52.28410384 28.44216829 52.26953125 31.34375 C52.26901291 33.35392252 52.26952959 35.36409556 52.27104187 37.37426758 C52.27095205 41.59105986 52.26050178 45.80766135 52.24243164 50.02441406 C52.21974416 55.43868523 52.21919928 60.85267742 52.22594929 66.26698303 C52.22928544 70.41901137 52.22266587 74.57097572 52.21282005 78.72299194 C52.20896164 80.71975368 52.20782248 82.71652252 52.2094059 84.71328735 C52.20977538 87.50040328 52.19718946 90.28715704 52.1809082 93.07421875 C52.18338562 93.90545258 52.18586304 94.7366864 52.18841553 95.59310913 C52.13499028 101.30250972 52.13499028 101.30250972 49.90625 103.53125 C47.25333243 103.70635386 44.70638826 103.76280483 42.0546875 103.7265625 C41.28065582 103.7237326 40.50662415 103.72090271 39.70913696 103.71798706 C37.23301843 103.70677754 34.7572595 103.68167203 32.28125 103.65625 C30.60417188 103.64622118 28.92708811 103.63709516 27.25 103.62890625 C23.13527777 103.60683574 19.02082489 103.57230102 14.90625 103.53125 C14.90625 105.51125 14.90625 107.49125 14.90625 109.53125 C16.15341797 109.49644531 16.15341797 109.49644531 17.42578125 109.4609375 C18.51246094 109.44289063 19.59914063 109.42484375 20.71875 109.40625 C21.79769531 109.38304688 22.87664062 109.35984375 23.98828125 109.3359375 C26.90625 109.53125 26.90625 109.53125 29.90625 111.53125 C30.28125 114.03125 30.28125 114.03125 29.90625 116.53125 C26.28218337 118.94729442 23.63936412 118.81378022 19.453125 118.79003906 C18.31852844 118.79529602 18.31852844 118.79529602 17.16101074 118.80065918 C14.65933062 118.80946568 12.15793302 118.80363123 9.65625 118.796875 C7.91894476 118.79822196 6.18163989 118.80016276 4.44433594 118.80267334 C0.80269788 118.80562313 -2.83884209 118.80133161 -6.48046875 118.79199219 C-11.15138558 118.78059772 -15.82207257 118.78715797 -20.49298096 118.79913712 C-24.08058406 118.80635962 -27.66813257 118.80406599 -31.2557373 118.79888153 C-32.97814969 118.79754611 -34.70056701 118.79918898 -36.42297363 118.80384064 C-38.82899127 118.80891228 -41.23463523 118.8011868 -43.640625 118.79003906 C-44.35448364 118.79408752 -45.06834229 118.79813599 -45.80383301 118.80230713 C-49.46195459 118.7708626 -50.96098615 118.61975923 -54.09375 116.53125 C-54.46875 114.03125 -54.46875 114.03125 -54.09375 111.53125 C-50.56695901 109.18005601 -49.06495515 109.31681548 -44.90625 109.40625 C-43.81957031 109.42429687 -42.73289063 109.44234375 -41.61328125 109.4609375 C-40.78183594 109.48414062 -39.95039062 109.50734375 -39.09375 109.53125 C-39.09375 107.55125 -39.09375 105.57125 -39.09375 103.53125 C-40.66842041 103.54696045 -40.66842041 103.54696045 -42.27490234 103.56298828 C-46.16240033 103.59913453 -50.04988341 103.62213078 -53.9375 103.64111328 C-55.62144466 103.65118317 -57.30537179 103.66483988 -58.98925781 103.68212891 C-61.40694501 103.70633426 -63.82440143 103.71772296 -66.2421875 103.7265625 C-66.9974472 103.73688507 -67.75270691 103.74720764 -68.53085327 103.75784302 C-70.3866898 103.75824318 -72.2419428 103.65347716 -74.09375 103.53125 C-76.6916759 100.9333241 -76.34279246 99.13287476 -76.37591553 95.59310913 C-76.37343811 94.76187531 -76.37096069 93.93064148 -76.3684082 93.07421875 C-76.37351913 92.19931793 -76.37863007 91.32441711 -76.38389587 90.42300415 C-76.39783358 87.52151716 -76.39683213 84.62026655 -76.39453125 81.71875 C-76.39841558 79.70857657 -76.40274969 77.69840396 -76.40751648 75.68823242 C-76.41498746 71.47148988 -76.41468084 67.25483105 -76.40942383 63.03808594 C-76.40362473 57.62376358 -76.42056663 52.20978281 -76.4437685 46.79551697 C-76.4584706 42.64349348 -76.45938242 38.49155296 -76.45625877 34.33950806 C-76.45677365 32.34273603 -76.46204245 30.34595956 -76.47207069 28.34921265 C-76.48435119 25.56200686 -76.47769447 22.77547553 -76.46606445 19.98828125 C-76.47370819 19.15704742 -76.48135193 18.3258136 -76.48922729 17.46939087 C-76.4679718 15.17504883 -76.4679718 15.17504883 -76.09375 11.53125 C-72.8281669 9.3541946 -72.23814666 9.33443477 -68.52734375 9.5390625 C-52.60572039 9.92752729 -40.17985778 6.44953185 -25.53295898 0.66064453 C-24.82575211 0.38585266 -24.11854523 0.11106079 -23.38990784 -0.17205811 C-22.06418429 -0.69132092 -20.74422781 -1.22567647 -19.43199158 -1.77813721 C-12.36838053 -4.56772531 -6.83183414 -2.55872563 0 0 Z " fill="#CDE4FB" transform="translate(76.09375,6.46875)"/>
<path d="M0 0 C1.36299273 0.49571206 2.72679623 0.98919928 4.09130859 1.48071289 C4.79632507 1.73515167 5.50134155 1.98959045 6.22772217 2.2517395 C19.93447201 7.15622373 32.2497222 10.15731211 46.97802734 9.38696289 C48.90625 9.53125 48.90625 9.53125 51.90625 11.53125 C52.20301455 14.4208473 52.3051574 17.09637698 52.27856445 19.98828125 C52.28221512 20.86318207 52.28586578 21.73808289 52.28962708 22.63949585 C52.29775511 25.54110933 52.28410384 28.44216829 52.26953125 31.34375 C52.26901291 33.35392252 52.26952959 35.36409556 52.27104187 37.37426758 C52.27095205 41.59105986 52.26050178 45.80766135 52.24243164 50.02441406 C52.21974416 55.43868523 52.21919928 60.85267742 52.22594929 66.26698303 C52.22928544 70.41901137 52.22266587 74.57097572 52.21282005 78.72299194 C52.20896164 80.71975368 52.20782248 82.71652252 52.2094059 84.71328735 C52.20977538 87.50040328 52.19718946 90.28715704 52.1809082 93.07421875 C52.18338562 93.90545258 52.18586304 94.7366864 52.18841553 95.59310913 C52.13499028 101.30250972 52.13499028 101.30250972 49.90625 103.53125 C47.25333243 103.70635386 44.70638826 103.76280483 42.0546875 103.7265625 C41.28065582 103.7237326 40.50662415 103.72090271 39.70913696 103.71798706 C37.23301843 103.70677754 34.7572595 103.68167203 32.28125 103.65625 C30.60417188 103.64622118 28.92708811 103.63709516 27.25 103.62890625 C23.13527777 103.60683574 19.02082489 103.57230102 14.90625 103.53125 C14.90625 105.51125 14.90625 107.49125 14.90625 109.53125 C16.15341797 109.49644531 16.15341797 109.49644531 17.42578125 109.4609375 C18.51246094 109.44289063 19.59914063 109.42484375 20.71875 109.40625 C21.79769531 109.38304688 22.87664062 109.35984375 23.98828125 109.3359375 C26.90625 109.53125 26.90625 109.53125 29.90625 111.53125 C30.28125 114.03125 30.28125 114.03125 29.90625 116.53125 C26.28218337 118.94729442 23.63936412 118.81378022 19.453125 118.79003906 C18.31852844 118.79529602 18.31852844 118.79529602 17.16101074 118.80065918 C14.65933062 118.80946568 12.15793302 118.80363123 9.65625 118.796875 C7.91894476 118.79822196 6.18163989 118.80016276 4.44433594 118.80267334 C0.80269788 118.80562313 -2.83884209 118.80133161 -6.48046875 118.79199219 C-11.15138558 118.78059772 -15.82207257 118.78715797 -20.49298096 118.79913712 C-24.08058406 118.80635962 -27.66813257 118.80406599 -31.2557373 118.79888153 C-32.97814969 118.79754611 -34.70056701 118.79918898 -36.42297363 118.80384064 C-38.82899127 118.80891228 -41.23463523 118.8011868 -43.640625 118.79003906 C-44.35448364 118.79408752 -45.06834229 118.79813599 -45.80383301 118.80230713 C-49.46195459 118.7708626 -50.96098615 118.61975923 -54.09375 116.53125 C-54.46875 114.03125 -54.46875 114.03125 -54.09375 111.53125 C-50.56695901 109.18005601 -49.06495515 109.31681548 -44.90625 109.40625 C-43.81957031 109.42429687 -42.73289063 109.44234375 -41.61328125 109.4609375 C-40.78183594 109.48414062 -39.95039062 109.50734375 -39.09375 109.53125 C-39.09375 107.55125 -39.09375 105.57125 -39.09375 103.53125 C-40.66842041 103.54696045 -40.66842041 103.54696045 -42.27490234 103.56298828 C-46.16240033 103.59913453 -50.04988341 103.62213078 -53.9375 103.64111328 C-55.62144466 103.65118317 -57.30537179 103.66483988 -58.98925781 103.68212891 C-61.40694501 103.70633426 -63.82440143 103.71772296 -66.2421875 103.7265625 C-66.9974472 103.73688507 -67.75270691 103.74720764 -68.53085327 103.75784302 C-70.3866898 103.75824318 -72.2419428 103.65347716 -74.09375 103.53125 C-76.6916759 100.9333241 -76.34279246 99.13287476 -76.37591553 95.59310913 C-76.37343811 94.76187531 -76.37096069 93.93064148 -76.3684082 93.07421875 C-76.37351913 92.19931793 -76.37863007 91.32441711 -76.38389587 90.42300415 C-76.39783358 87.52151716 -76.39683213 84.62026655 -76.39453125 81.71875 C-76.39841558 79.70857657 -76.40274969 77.69840396 -76.40751648 75.68823242 C-76.41498746 71.47148988 -76.41468084 67.25483105 -76.40942383 63.03808594 C-76.40362473 57.62376358 -76.42056663 52.20978281 -76.4437685 46.79551697 C-76.4584706 42.64349348 -76.45938242 38.49155296 -76.45625877 34.33950806 C-76.45677365 32.34273603 -76.46204245 30.34595956 -76.47207069 28.34921265 C-76.48435119 25.56200686 -76.47769447 22.77547553 -76.46606445 19.98828125 C-76.47370819 19.15704742 -76.48135193 18.3258136 -76.48922729 17.46939087 C-76.4679718 15.17504883 -76.4679718 15.17504883 -76.09375 11.53125 C-72.8281669 9.3541946 -72.23814666 9.33443477 -68.52734375 9.5390625 C-52.60572039 9.92752729 -40.17985778 6.44953185 -25.53295898 0.66064453 C-24.82575211 0.38585266 -24.11854523 0.11106079 -23.38990784 -0.17205811 C-22.06418429 -0.69132092 -20.74422781 -1.22567647 -19.43199158 -1.77813721 C-12.36838053 -4.56772531 -6.83183414 -2.55872563 0 0 Z M-69.09375 17.53125 C-69.09375 43.27125 -69.09375 69.01125 -69.09375 95.53125 C-31.38686473 95.62551721 6.20662206 95.30259789 43.90625 94.53125 C43.90625 69.45125 43.90625 44.37125 43.90625 18.53125 C39.94625 18.53125 35.98625 18.53125 31.90625 18.53125 C31.83277344 20.98691406 31.83277344 20.98691406 31.7578125 23.4921875 C31.68279361 25.630226 31.6072454 27.76824598 31.53125 29.90625 C31.5003125 30.98648438 31.469375 32.06671875 31.4375 33.1796875 C31.39882812 34.2109375 31.36015625 35.2421875 31.3203125 36.3046875 C31.27318115 37.73433838 31.27318115 37.73433838 31.22509766 39.19287109 C30.90625 41.53125 30.90625 41.53125 28.90625 43.53125 C27.58625 43.20125 26.26625 42.87125 24.90625 42.53125 C24.57625 34.94125 24.24625 27.35125 23.90625 19.53125 C21.26625 20.19125 18.62625 20.85125 15.90625 21.53125 C15.57625 27.47125 15.24625 33.41125 14.90625 39.53125 C11.05719268 41.04563321 7.20290445 42.5430063 3.34375 44.03125 C2.25771484 44.46050781 1.17167969 44.88976562 0.05273438 45.33203125 C-10.90924373 49.53023563 -16.83943126 48.67199905 -27.46875 44.09375 C-28.98275391 43.46243164 -28.98275391 43.46243164 -30.52734375 42.81835938 C-37.91298272 39.71201728 -37.91298272 39.71201728 -39.09375 38.53125 C-39.33076239 35.67247091 -39.51594182 32.83241703 -39.65625 29.96875 C-39.69943359 29.16244141 -39.74261719 28.35613281 -39.78710938 27.52539062 C-39.89350262 25.52756195 -39.99415888 23.5294293 -40.09375 21.53125 C-50.16403235 16.56265254 -56.96781869 17.53125 -69.09375 17.53125 Z " fill="#455B93" transform="translate(76.09375,6.46875)"/>
<path d="M0 0 C20.25 0 20.25 0 29 4 C29.495 12.415 29.495 12.415 30 21 C35.69928569 23.9573613 41.43048272 26.4293338 47.4375 28.6875 C49.04126389 29.29319705 50.64417919 29.90114748 52.24609375 30.51171875 C52.94404053 30.77428467 53.6419873 31.03685059 54.36108398 31.30737305 C56 32 56 32 57 33 C57.14310287 36.6691577 57.04221662 40.32715441 57 44 C48.585 44.495 48.585 44.495 40 45 C39.67 46.32 39.34 47.64 39 49 C41.11925604 51.11925604 45.6196093 50.41831017 48.5625 50.5625 C49.77196289 50.62727539 49.77196289 50.62727539 51.00585938 50.69335938 C53.00368805 50.79975262 55.0018207 50.90040888 57 51 C57 53.64 57 56.28 57 59 C48.585 59.495 48.585 59.495 40 60 C39.67 61.32 39.34 62.64 39 64 C41.93447357 66.93447357 45.18259456 66.46158423 49.125 66.625 C49.87910156 66.66367188 50.63320313 66.70234375 51.41015625 66.7421875 C53.27303184 66.83651031 55.13648255 66.91934662 57 67 C57 70.63 57 74.26 57 78 C38.19 78 19.38 78 0 78 C0 52.26 0 26.52 0 0 Z " fill="#E7EFFB" transform="translate(7,24)"/>
<path d="M0 0 C0 11.22 0 22.44 0 34 C7.58140244 31.66726079 15.0653444 29.33915611 22.5390625 26.734375 C25 26 25 26 28 26 C28 31.61 28 37.22 28 43 C22.36806468 45.61482711 16.6592819 47.99594935 10.875 50.25 C10.20662109 50.52021973 9.53824219 50.79043945 8.84960938 51.06884766 C-0.27603268 54.56401352 -6.62639054 52.34354456 -15.3125 48.625 C-16.31345703 48.2125 -17.31441406 47.8 -18.34570312 47.375 C-25.70649136 44.29350864 -25.70649136 44.29350864 -28 42 C-28.14517744 39.0906442 -28.18630796 36.280054 -28.125 33.375 C-28.11597656 32.57320312 -28.10695312 31.77140625 -28.09765625 30.9453125 C-28.07406223 28.96341477 -28.03819065 26.98167019 -28 25 C-37.84874121 21.55077125 -46.10480755 21.60528847 -57 21 C-57 46.74 -57 72.48 -57 99 C-38.19 99 -19.38 99 0 99 C0 101.31 0 103.62 0 106 C-14.5639713 106.69519528 -29.1182738 107.12039428 -43.69833374 107.17724609 C-45.27503275 107.18408458 -46.85172063 107.1943411 -48.42837524 107.20800781 C-50.65157715 107.22581147 -52.87439157 107.23016566 -55.09765625 107.23046875 C-56.38164307 107.23457764 -57.66562988 107.23868652 -58.98852539 107.24291992 C-62 107 -62 107 -64 105 C-64.20395718 102.1492552 -64.28315919 99.39525722 -64.2746582 96.54296875 C-64.27976913 95.66806793 -64.28488007 94.79316711 -64.29014587 93.89175415 C-64.30408358 90.99026716 -64.30308213 88.08901655 -64.30078125 85.1875 C-64.30466558 83.17732657 -64.30899969 81.16715396 -64.31376648 79.15698242 C-64.32123746 74.94023988 -64.32093084 70.72358105 -64.31567383 66.50683594 C-64.30987473 61.09251358 -64.32681663 55.67853281 -64.3500185 50.26426697 C-64.3647206 46.11224348 -64.36563242 41.96030296 -64.36250877 37.80825806 C-64.36302365 35.81148603 -64.36829245 33.81470956 -64.37832069 31.81796265 C-64.39060119 29.03075686 -64.38394447 26.24422553 -64.37231445 23.45703125 C-64.37995819 22.62579742 -64.38760193 21.7945636 -64.39547729 20.93814087 C-64.3742218 18.64379883 -64.3742218 18.64379883 -64 15 C-60.7344169 12.8229446 -60.14439666 12.80318477 -56.43359375 13.0078125 C-38.22092523 13.4535391 -23.49607701 8.43521172 -6.77175903 1.8039093 C-2.19968884 0 -2.19968884 0 0 0 Z " fill="#3F558F" transform="translate(64,3)"/>
<path d="M0 0 C1.54204102 0.00966797 1.54204102 0.00966797 3.11523438 0.01953125 C4.18708984 0.03628906 5.25894531 0.05304687 6.36328125 0.0703125 C7.44673828 0.07933594 8.53019531 0.08835937 9.64648438 0.09765625 C12.32313835 0.1212391 14.99934922 0.15415124 17.67578125 0.1953125 C17.01578125 0.8553125 16.35578125 1.5153125 15.67578125 2.1953125 C15.67578125 4.1753125 15.67578125 6.1553125 15.67578125 8.1953125 C10.06578125 8.1953125 4.45578125 8.1953125 -1.32421875 8.1953125 C-1.32421875 33.9353125 -1.32421875 59.6753125 -1.32421875 86.1953125 C17.48578125 86.1953125 36.29578125 86.1953125 55.67578125 86.1953125 C55.67578125 88.5053125 55.67578125 90.8153125 55.67578125 93.1953125 C41.11180995 93.89050778 26.55750745 94.31570678 11.97744751 94.37255859 C10.4007485 94.37939708 8.82406062 94.3896536 7.24740601 94.40332031 C5.0242041 94.42112397 2.80138968 94.42547816 0.578125 94.42578125 C-0.70586182 94.42989014 -1.98984863 94.43399902 -3.31274414 94.43823242 C-6.32421875 94.1953125 -6.32421875 94.1953125 -8.32421875 92.1953125 C-8.52817593 89.3445677 -8.60737794 86.59056972 -8.59887695 83.73828125 C-8.60398788 82.86338043 -8.60909882 81.98847961 -8.61436462 81.08706665 C-8.62830233 78.18557966 -8.62730088 75.28432905 -8.625 72.3828125 C-8.62888433 70.37263907 -8.63321844 68.36246646 -8.63798523 66.35229492 C-8.64545621 62.13555238 -8.64514959 57.91889355 -8.63989258 53.70214844 C-8.63409348 48.28782608 -8.65103538 42.87384531 -8.67423725 37.45957947 C-8.68893935 33.30755598 -8.68985117 29.15561546 -8.68672752 25.00357056 C-8.6872424 23.00679853 -8.6925112 21.01002206 -8.70253944 19.01327515 C-8.71481994 16.22606936 -8.70816322 13.43953803 -8.6965332 10.65234375 C-8.70417694 9.82110992 -8.71182068 8.9898761 -8.71969604 8.13345337 C-8.69844055 5.83911133 -8.69844055 5.83911133 -8.32421875 2.1953125 C-4.97302356 -0.03881763 -3.90644325 -0.04316512 0 0 Z " fill="#59729E" transform="translate(8.32421875,15.8046875)"/>
<path d="M0 0 C8.14571715 2.22155922 16.08940706 4.59594068 24.05517578 7.33398438 C26.02216448 8.00759035 27.99333842 8.66787278 29.96484375 9.328125 C31.22683805 9.75961158 32.48856728 10.19187441 33.75 10.625 C34.87921875 11.00914063 36.0084375 11.39328125 37.171875 11.7890625 C41.49559034 13.64037708 41.49559034 13.64037708 43 16 C43.37231445 19.06274414 43.37231445 19.06274414 43.36328125 22.78515625 C43.36402901 23.77049599 43.36402901 23.77049599 43.36479187 24.77574158 C43.36245488 26.16180452 43.35274825 27.54787199 43.33618164 28.93383789 C43.31254461 31.05848984 43.31562808 33.18189022 43.32226562 35.30664062 C43.27915915 45.72084085 43.27915915 45.72084085 41 48 C37.46428571 47.46428571 37.46428571 47.46428571 36 46 C35.91286169 44.29227642 35.89299993 42.58101351 35.90234375 40.87109375 C35.90556641 39.83662109 35.90878906 38.80214844 35.91210938 37.73632812 C35.92467773 36.1034082 35.92467773 36.1034082 35.9375 34.4375 C35.94201172 33.34501953 35.94652344 32.25253906 35.95117188 31.12695312 C35.96300174 28.41791505 35.97948457 25.70898401 36 23 C35.08710205 23.33322266 34.1742041 23.66644531 33.23364258 24.00976562 C29.83532813 25.24781179 26.43328214 26.47530835 23.0300293 27.69970703 C21.55959391 28.23037831 20.09017603 28.76387808 18.62182617 29.30029297 C16.50703015 30.07230452 14.38874378 30.83395927 12.26953125 31.59375 C11.29111015 31.95466736 11.29111015 31.95466736 10.29292297 32.32287598 C6.52142995 33.66196251 4.12603501 34 0 34 C0 22.78 0 11.56 0 0 Z " fill="#1C3470" transform="translate(64,3)"/>
<path d="M0 0 C0.75639771 -0.00350464 1.51279541 -0.00700928 2.29211426 -0.01062012 C4.79379438 -0.01942662 7.29519198 -0.01359216 9.796875 -0.00683594 C11.53418024 -0.0081829 13.27148511 -0.01012369 15.00878906 -0.01263428 C18.65042712 -0.01558407 22.29196709 -0.01129255 25.93359375 -0.00195312 C30.60451058 0.00944134 35.27519757 0.0028811 39.94610596 -0.00909805 C43.53370906 -0.01632056 47.12125757 -0.01402693 50.7088623 -0.00884247 C52.43127469 -0.00750705 54.15369201 -0.00914992 55.87609863 -0.01380157 C58.28211627 -0.01887322 60.68776023 -0.01114774 63.09375 0 C63.80760864 -0.00404846 64.52146729 -0.00809692 65.25695801 -0.01226807 C68.91507959 0.01917646 70.41411115 0.17027983 73.546875 2.25878906 C73.921875 4.75878906 73.921875 4.75878906 73.546875 7.25878906 C69.92280837 9.67483348 67.27998912 9.54131928 63.09375 9.51757812 C62.33735229 9.52108276 61.58095459 9.5245874 60.80163574 9.52819824 C58.29995562 9.53700474 55.79855802 9.53117029 53.296875 9.52441406 C51.55956976 9.52576103 49.82226489 9.52770182 48.08496094 9.5302124 C44.44332288 9.5331622 40.80178291 9.52887067 37.16015625 9.51953125 C32.48923942 9.50813678 27.81855243 9.51469703 23.14764404 9.52667618 C19.56004094 9.53389868 15.97249243 9.53160505 12.3848877 9.52642059 C10.66247531 9.52508518 8.94005799 9.52672804 7.21765137 9.5313797 C4.81163373 9.53645134 2.40598977 9.52872586 0 9.51757812 C-0.71385864 9.52162659 -1.42771729 9.52567505 -2.16320801 9.52984619 C-5.82132959 9.49840166 -7.32036115 9.34729829 -10.453125 7.25878906 C-10.828125 4.75878906 -10.828125 4.75878906 -10.453125 2.25878906 C-6.82905837 -0.15725536 -4.18623912 -0.02374116 0 0 Z " fill="#405690" transform="translate(32.453125,115.7412109375)"/>
<path d="M0 0 C3.82817224 1.25961174 7.65503503 2.52311504 11.48071289 3.7902832 C12.78309049 4.22105089 14.08582458 4.65074225 15.38891602 5.0793457 C17.25890373 5.69461363 19.12752142 6.31404059 20.99609375 6.93359375 C22.12200928 7.30540771 23.2479248 7.67722168 24.40795898 8.06030273 C27 9 27 9 28 10 C28.08631874 11.34267413 28.10706473 12.68974322 28.09765625 14.03515625 C28.09443359 14.84404297 28.09121094 15.65292969 28.08789062 16.48632812 C28.07951172 17.33646484 28.07113281 18.18660156 28.0625 19.0625 C28.05798828 19.91650391 28.05347656 20.77050781 28.04882812 21.65039062 C28.03700373 23.76695663 28.01906769 25.88348685 28 28 C22.17687743 27.37333946 17.12604359 25.25087509 11.75 23.0625 C10.83992188 22.70220703 9.92984375 22.34191406 8.9921875 21.97070312 C2.25807453 19.25807453 2.25807453 19.25807453 0 17 C-0.14517744 14.0906442 -0.18630796 11.280054 -0.125 8.375 C-0.11597656 7.57320312 -0.10695312 6.77140625 -0.09765625 5.9453125 C-0.07406223 3.96341477 -0.03819065 1.98167019 0 0 Z " fill="#5A729E" transform="translate(36,28)"/>
<path d="M0 0 C0.84175781 -0.00257812 1.68351562 -0.00515625 2.55078125 -0.0078125 C3.87142578 0.00378906 3.87142578 0.00378906 5.21875 0.015625 C6.09917969 0.00789063 6.97960938 0.00015625 7.88671875 -0.0078125 C8.72847656 -0.00523438 9.57023437 -0.00265625 10.4375 0 C11.59668945 0.00338379 11.59668945 0.00338379 12.77929688 0.00683594 C14.71875 0.265625 14.71875 0.265625 16.71875 2.265625 C16.97753906 4.11328125 16.97753906 4.11328125 16.984375 6.328125 C16.98824219 7.52308594 16.98824219 7.52308594 16.9921875 8.7421875 C16.98445313 9.57492188 16.97671875 10.40765625 16.96875 11.265625 C16.97648437 12.09835938 16.98421875 12.93109375 16.9921875 13.7890625 C16.98960938 14.58570312 16.98703125 15.38234375 16.984375 16.203125 C16.98211914 16.93402344 16.97986328 17.66492188 16.97753906 18.41796875 C16.71875 20.265625 16.71875 20.265625 14.71875 22.265625 C12.77929688 22.52441406 12.77929688 22.52441406 10.4375 22.53125 C9.59574219 22.53382812 8.75398438 22.53640625 7.88671875 22.5390625 C7.00628906 22.53132813 6.12585937 22.52359375 5.21875 22.515625 C3.89810547 22.52722656 3.89810547 22.52722656 2.55078125 22.5390625 C1.70902344 22.53648438 0.86726563 22.53390625 0 22.53125 C-0.77279297 22.52899414 -1.54558594 22.52673828 -2.34179688 22.52441406 C-4.28125 22.265625 -4.28125 22.265625 -6.28125 20.265625 C-6.54003906 18.41796875 -6.54003906 18.41796875 -6.546875 16.203125 C-6.54945312 15.40648438 -6.55203125 14.60984375 -6.5546875 13.7890625 C-6.54695312 12.95632812 -6.53921875 12.12359375 -6.53125 11.265625 C-6.53898438 10.43289062 -6.54671875 9.60015625 -6.5546875 8.7421875 C-6.55210938 7.94554688 -6.54953125 7.14890625 -6.546875 6.328125 C-6.54461914 5.59722656 -6.54236328 4.86632812 -6.54003906 4.11328125 C-5.97604543 0.08657953 -3.45791206 0.01009399 0 0 Z " fill="#FB6486" transform="translate(21.28125,67.734375)"/>
<path d="M0 0 C1.15249741 0.00222061 2.30499481 0.00444122 3.49241638 0.00672913 C5.4443264 0.00684242 5.4443264 0.00684242 7.43566895 0.00695801 C8.86661313 0.01206543 10.29755694 0.01728144 11.72850037 0.02259827 C13.18438672 0.02446249 14.64027369 0.02588637 16.09616089 0.02688599 C19.93488791 0.03071086 23.77357731 0.04054088 27.61228943 0.05158997 C31.52667227 0.06180474 35.44106117 0.06638375 39.35545349 0.07142639 C47.04101755 0.08216318 54.72655057 0.09923923 62.41209412 0.12025452 C62.7934271 2.11166012 63.12534994 4.11304529 63.41209412 6.12025452 C61.60005571 7.93229292 58.80226813 7.25740974 56.36351013 7.26551819 C55.06869217 7.27189804 53.77387421 7.27827789 52.43981934 7.28485107 C51.01521339 7.28637963 49.59060695 7.28749365 48.16600037 7.28822327 C46.71490444 7.29143414 45.26380885 7.29479808 43.81271362 7.29830933 C40.76697539 7.30430697 37.72126557 7.30614858 34.67552185 7.30555725 C30.76673555 7.3054556 26.8581308 7.31910761 22.94938755 7.33632946 C19.95116331 7.34743122 16.95298321 7.34947702 13.95474052 7.34894753 C12.5133953 7.35013041 11.07204904 7.35456937 9.63072395 7.36227989 C7.61719716 7.37204238 5.60361744 7.36794722 3.59007263 7.36317444 C1.86918175 7.36531197 1.86918175 7.36531197 0.11352539 7.36749268 C-2.58790588 7.12025452 -2.58790588 7.12025452 -4.58790588 5.12025452 C-4.03973658 1.5023371 -3.8315679 0.17804486 0 0 Z " fill="#00ADE9" transform="translate(49.58790588378906,67.87974548339844)"/>
<path d="M0 0 C1.27479721 -0.00637985 2.54959442 -0.0127597 3.86302185 -0.01933289 C5.26553306 -0.02086144 6.66804478 -0.02197547 8.07055664 -0.02270508 C9.49923232 -0.02591598 10.92790767 -0.02927992 12.35658264 -0.03279114 C15.35524254 -0.03878872 18.35387359 -0.0406304 21.35253906 -0.04003906 C25.20079238 -0.03993742 29.04886129 -0.0535893 32.89707088 -0.07081127 C35.84897211 -0.08191339 38.80082852 -0.08395882 41.75274849 -0.08342934 C43.17176512 -0.08461217 44.59078281 -0.08905087 46.00977898 -0.0967617 C47.99217238 -0.10652487 49.97461955 -0.10242885 51.95703125 -0.09765625 C53.6512748 -0.09979378 53.6512748 -0.09979378 55.37974548 -0.10197449 C58.04321289 0.14526367 58.04321289 0.14526367 60.04321289 2.14526367 C59.66821289 4.77026367 59.66821289 4.77026367 59.04321289 7.14526367 C50.60282094 7.19154891 42.16248178 7.22711336 33.7219944 7.24888802 C29.80298005 7.25933732 25.88405236 7.27351729 21.96508789 7.29614258 C18.1849825 7.31783029 14.40496061 7.32982365 10.62479782 7.33501816 C9.1806545 7.33872127 7.73651589 7.34595227 6.29240799 7.35672379 C4.27400395 7.37118384 2.25551637 7.37208012 0.23706055 7.37231445 C-1.48835464 7.37897629 -1.48835464 7.37897629 -3.24862671 7.38577271 C-5.95678711 7.14526367 -5.95678711 7.14526367 -7.95678711 5.14526367 C-7.11637442 -0.40146005 -5.27082526 0.01780041 0 0 Z " fill="#00ADE9" transform="translate(52.956787109375,82.854736328125)"/>
<path d="M0 0 C7.52969652 -0.02526648 15.0593822 -0.04283141 22.58911133 -0.05493164 C25.15291757 -0.0599737 27.71672091 -0.06680714 30.28051758 -0.07543945 C33.95655021 -0.08751064 37.63254498 -0.09322942 41.30859375 -0.09765625 C42.46274277 -0.10281754 43.61689178 -0.10797882 44.80601501 -0.11329651 C46.3975515 -0.11340981 46.3975515 -0.11340981 48.02124023 -0.11352539 C48.96055893 -0.115746 49.89987762 -0.11796661 50.86766052 -0.12025452 C53 0 53 0 54 1 C54 3.31 54 5.62 54 8 C36.18 8 18.36 8 0 8 C0 5.36 0 2.72 0 0 Z " fill="#40568F" transform="translate(37,109)"/>
<path d="M0 0 C0.86140091 0.02502594 1.72280182 0.05005188 2.61030579 0.07583618 C5.36169942 0.15801109 8.11237254 0.25460995 10.86328125 0.3515625 C12.72848619 0.40980465 14.5937207 0.46710788 16.45898438 0.5234375 C21.03166444 0.66358614 25.60375061 0.81667256 30.17578125 0.9765625 C30.17578125 3.6165625 30.17578125 6.2565625 30.17578125 8.9765625 C24.67652704 9.02597179 19.17740183 9.06228645 13.67797852 9.08642578 C11.80686187 9.09648817 9.93576097 9.11013941 8.06469727 9.12744141 C5.37642534 9.15167934 2.68836119 9.16304313 0 9.171875 C-0.83759354 9.18219757 -1.67518707 9.19252014 -2.53816223 9.20315552 C-8.48260363 9.20430591 -8.48260363 9.20430591 -11.82421875 6.9765625 C-12.19921875 4.4765625 -12.19921875 4.4765625 -11.82421875 1.9765625 C-7.86266076 -0.66447616 -4.57604851 -0.17589923 0 0 Z " fill="#59719E" transform="translate(33.82421875,116.0234375)"/>
<path d="M0 0 C4.31248609 -0.02886537 8.62494762 -0.04675255 12.9375 -0.0625 C14.16919922 -0.07087891 15.40089844 -0.07925781 16.66992188 -0.08789062 C17.83974609 -0.09111328 19.00957031 -0.09433594 20.21484375 -0.09765625 C21.84087524 -0.10551147 21.84087524 -0.10551147 23.49975586 -0.11352539 C26 0 26 0 27 1 C27 3.31 27 5.62 27 8 C18.09 8 9.18 8 0 8 C0 5.36 0 2.72 0 0 Z " fill="#1F3773" transform="translate(64,109)"/>
<path d="M0 0 C1.58206057 0.00667536 3.16410534 0.0186375 4.74609375 0.03515625 C5.55240234 0.03966797 6.35871094 0.04417969 7.18945312 0.04882812 C9.18753131 0.06065107 11.18557158 0.07858711 13.18359375 0.09765625 C13.18359375 2.40765625 13.18359375 4.71765625 13.18359375 7.09765625 C10.3916717 7.15146203 7.60077965 7.19123294 4.80859375 7.22265625 C4.01453125 7.23941406 3.22046875 7.25617188 2.40234375 7.2734375 C0.3286736 7.29101098 -1.74523866 7.20100793 -3.81640625 7.09765625 C-4.47640625 6.43765625 -5.13640625 5.77765625 -5.81640625 5.09765625 C-5.13297759 0.58702712 -4.75183137 0.12159241 0 0 Z " fill="#03C1F0" transform="translate(50.81640625,82.90234375)"/>
<path d="M0 0 C1.58206057 0.00667536 3.16410534 0.0186375 4.74609375 0.03515625 C5.55240234 0.03966797 6.35871094 0.04417969 7.18945312 0.04882812 C9.18753131 0.06065107 11.18557158 0.07858711 13.18359375 0.09765625 C13.18359375 2.40765625 13.18359375 4.71765625 13.18359375 7.09765625 C10.3916717 7.15146203 7.60077965 7.19123294 4.80859375 7.22265625 C4.01453125 7.23941406 3.22046875 7.25617188 2.40234375 7.2734375 C0.3286736 7.29101098 -1.74523866 7.20100793 -3.81640625 7.09765625 C-4.47640625 6.43765625 -5.13640625 5.77765625 -5.81640625 5.09765625 C-5.13297759 0.58702712 -4.75183137 0.12159241 0 0 Z " fill="#03C1F0" transform="translate(50.81640625,67.90234375)"/>
</svg>
